HIERARCHY
ROOT Hips
{
	OFFSET 0.000000 0.000000 0.000000
	CHANNELS 6 Xposition Yposition Zposition Xrotation Yrotation Zrotation
	JOINT LeftUpLeg_virtual
	{
		OFFSET 0.000000 0.000000 0.000000
		CHANNELS 3 Xrotation Yrotation Zrotation
		JOINT LeftUpLeg
		{
			OFFSET 11.394100 -6.187798 -0.413800
			CHANNELS 3 Xrotation Yrotation Zrotation
			JOINT LeftLeg
			{
				OFFSET 0.430247 -32.302673 3.732800
				CHANNELS 3 Xrotation Yrotation Zrotation
				JOINT LeftFoot
				{
					OFFSET -0.430247 -48.264931 -6.423300
					CHANNELS 3 Xrotation Yrotation Zrotation
					JOINT LeftToeBase
					{
						OFFSET 4.230900 -16.068199 23.438400
						CHANNELS 3 Xrotation Yrotation Zrotation
						JOINT LeftToe_End
						{
							OFFSET 4.510700 0.695400 19.974600
							CHANNELS 3 Xrotation Yrotation Zrotation
							End Site
							{
								OFFSET 0 0 0
							}
						}
					}
				}
			}
		}
	}
	JOINT RightUpLeg_virtual
	{
		OFFSET 0.000000 0.000000 0.000000
		CHANNELS 3 Xrotation Yrotation Zrotation
		JOINT RightUpLeg
		{
			OFFSET -11.333700 -6.187798 -0.413800
			CHANNELS 3 Xrotation Yrotation Zrotation
			JOINT RightLeg
			{
				OFFSET -0.430392 -32.302628 3.733000
				CHANNELS 3 Xrotation Yrotation Zrotation
				JOINT RightFoot
				{
					OFFSET 0.430392 -48.264973 -6.423500
					CHANNELS 3 Xrotation Yrotation Zrotation
					JOINT RightToeBase
					{
						OFFSET -4.230900 -16.068199 23.438400
						CHANNELS 3 Xrotation Yrotation Zrotation
						JOINT RightToe_End
						{
							OFFSET -4.510700 0.695400 19.974600
							CHANNELS 3 Xrotation Yrotation Zrotation
							End Site
							{
								OFFSET 0 0 0
							}
						}
					}
				}
			}
		}
	}
	JOINT Spine_virtual
	{
		OFFSET 0.000000 0.000000 0.000000
		CHANNELS 3 Xrotation Yrotation Zrotation
		JOINT Spine
		{
			OFFSET -0.002400 12.777504 0.315300
			CHANNELS 3 Xrotation Yrotation Zrotation
			JOINT Spine1
			{
				OFFSET -0.002067 5.816869 0.032633
				CHANNELS 3 Xrotation Yrotation Zrotation
				JOINT Spine1_split
				{
					OFFSET -0.002067 5.816869 0.032633
					CHANNELS 3 Xrotation Yrotation Zrotation
					JOINT Spine2
					{
						OFFSET -0.002067 5.816869 0.032633
						CHANNELS 3 Xrotation Yrotation Zrotation
						JOINT Neck_virtual
						{
							OFFSET 0.000000 0.000000 0.000000
							CHANNELS 3 Xrotation Yrotation Zrotation
							JOINT Neck
							{
								OFFSET -0.003700 21.199493 -0.826900
								CHANNELS 3 Xrotation Yrotation Zrotation
								JOINT Head
								{
									OFFSET 0.000000 20.442200 4.834800
									CHANNELS 3 Xrotation Yrotation Zrotation
									JOINT HeadTop_End
									{
										OFFSET 0.000000 34.668396 4.968400
										CHANNELS 3 Xrotation Yrotation Zrotation
										End Site
										{
											OFFSET 0 0 0
										}
									}
								}
							}
						}
						JOINT LeftShoulder_virtual
						{
							OFFSET 0.000000 0.000000 0.000000
							CHANNELS 3 Xrotation Yrotation Zrotation
							JOINT LeftShoulder
							{
								OFFSET 3.288150 8.794197 -1.372250
								CHANNELS 3 Xrotation Yrotation Zrotation
								JOINT LeftShoulder_split
								{
									OFFSET 3.288150 8.794197 -1.372250
									CHANNELS 3 Xrotation Yrotation Zrotation
									JOINT LeftArm
									{
										OFFSET 11.953299 -2.279007 -0.146200
										CHANNELS 3 Xrotation Yrotation Zrotation
										JOINT LeftForeArm
										{
											OFFSET 18.448900 0.000000 0.000000
											CHANNELS 3 Xrotation Yrotation Zrotation
											JOINT LeftHand
											{
												OFFSET 29.527798 0.000000 0.000000
												CHANNELS 3 Xrotation Yrotation Zrotation
												End Site
												{
													OFFSET 0 0 0
												}
											}
										}
									}
								}
							}
						}
						JOINT RightShoulder_virtual
						{
							OFFSET 0.000000 0.000000 0.000000
							CHANNELS 3 Xrotation Yrotation Zrotation
							JOINT RightShoulder
							{
								OFFSET -3.249400 8.794197 -1.372250
								CHANNELS 3 Xrotation Yrotation Zrotation
								JOINT RightShoulder_split
								{
									OFFSET -3.249400 8.794197 -1.372250
									CHANNELS 3 Xrotation Yrotation Zrotation
									JOINT RightArm
									{
										OFFSET -11.953299 -2.279007 -0.146200
										CHANNELS 3 Xrotation Yrotation Zrotation
										JOINT RightForeArm
										{
											OFFSET -18.448900 0.000000 0.000000
											CHANNELS 3 Xrotation Yrotation Zrotation
											JOINT RightHand
											{
												OFFSET -29.527802 0.000000 0.000000
												CHANNELS 3 Xrotation Yrotation Zrotation
												End Site
												{
													OFFSET 0 0 0
												}
											}
										}
									}
								}
							}
						}
					}
				}
			}
		}
	}
}
MOTION
Frames: 4
Frame Time: 0.03333333
0.043410 88.333786 -6.600483 0.000000 0.000000 0.000000 6.422925 -55.971225 9.890202 -38.058606 13.699068 23.634591 36.806404 -12.685729 -0.731923 -1.166664 -1.459284 -8.458265 0.500747 -1.062250 -3.087652 0.000000 0.000000 0.000000 5.387904 -54.011384 9.153925 -36.960261 -4.852681 -22.448983 44.829889 13.933618 -6.967704 -12.217161 -5.378456 24.629314 7.046771 14.070661 -27.757880 0.000000 0.000000 0.000000 3.161813 -51.472002 8.180477 3.694443 2.167245 -2.773731 12.022671 -3.723943 -6.172277 -0.192146 -0.356625 0.078564 0.000000 0.000000 0.000000 13.924202 -1.705401 -5.407016 -17.712851 13.644143 0.614493 -10.146827 43.806784 12.697564 0.000000 0.000000 0.000000 12.346727 -2.825192 -7.367407 1.042073 -5.351581 -7.493834 -2.334621 -2.688915 -1.782231 -32.084155 -1.174250 -22.917189 2.359578 -21.623050 12.803295 0.000000 0.000000 0.000000 15.602012 -1.996934 -6.349649 -11.560088 27.183933 14.382860 9.430718 1.929974 -0.530619 -66.571074 -32.678541 2.772681 -103.134122 63.600925 103.947556 0.000000 0.000000 0.000000 
0.022619 88.207481 -6.360035 0.000000 0.000000 0.000000 6.439909 -55.309953 9.591869 -38.590835 13.714929 23.941864 37.205987 -12.785943 -0.743327 -0.761749 -1.418136 -8.884053 -0.129365 -1.102576 -2.731046 0.000000 0.000000 0.000000 5.517180 -53.490200 9.064466 -36.759945 -4.554029 -22.384830 44.314633 14.008001 -7.079818 -11.525692 -5.023591 25.618539 6.504906 14.175041 -27.935448 0.000000 0.000000 0.000000 3.167247 -50.991303 7.859929 3.571457 2.317335 -2.530520 11.717781 -3.934115 -6.212586 -0.207383 -0.447584 0.085862 0.000000 0.000000 0.000000 13.726146 -1.819461 -5.396911 -16.899355 13.576398 0.564548 -11.006245 43.956700 13.213613 0.000000 0.000000 0.000000 12.221505 -3.008085 -7.259500 0.987929 -4.699390 -8.072928 -0.931592 -2.765696 -1.511441 -31.476315 -1.905009 -23.467809 2.279199 -21.882746 12.516060 0.000000 0.000000 0.000000 15.268908 -2.224563 -6.235850 -11.170859 26.117221 14.239432 10.725016 2.068622 -0.248512 -64.908251 -33.522019 3.580273 -103.637957 63.505084 104.282311 0.000000 0.000000 0.000000 
-0.029887 87.712166 -6.087646 0.000000 0.000000 0.000000 6.454306 -54.265710 9.376010 -39.249679 13.310066 24.110493 37.942859 -12.734050 -0.866314 -0.993642 -0.952486 -8.964373 -0.563900 -1.065334 -2.667899 0.000000 0.000000 0.000000 5.774860 -52.408786 9.050446 -36.732511 -4.251103 -22.381920 44.587516 14.027139 -7.266158 -11.103088 -5.016919 27.128465 5.642522 14.384655 -27.776423 0.000000 0.000000 0.000000 3.049105 -49.762289 7.488824 3.339042 2.521507 -2.139997 11.283892 -4.217002 -6.026397 -0.134016 -0.547130 0.045560 0.000000 0.000000 0.000000 13.522162 -2.000167 -5.217045 -15.811020 12.689095 0.513598 -12.325313 43.751282 13.591584 0.000000 0.000000 0.000000 11.978437 -3.294305 -6.939241 0.862178 -4.361877 -9.116960 0.269479 -2.519756 -1.407422 -28.963697 -3.267529 -23.258251 1.562941 -22.620531 11.322456 0.000000 0.000000 0.000000 14.843400 -2.543080 -5.883435 -10.639083 24.038625 14.196156 10.268879 3.150174 -0.218124 -61.372556 -34.169510 5.397870 -99.474390 64.209782 100.107351 0.000000 0.000000 0.000000 
-0.068475 86.834251 -5.826004 0.000000 0.000000 0.000000 6.486203 -53.132243 9.316632 -39.996420 12.460358 23.994615 39.129177 -12.412475 -1.089872 -2.157154 -0.063855 -8.605145 0.057436 -0.952858 -3.073810 0.000000 0.000000 0.000000 6.029530 -51.159678 9.155615 -36.901265 -3.905864 -22.479566 45.865898 13.897561 -7.562486 -11.746186 -5.616990 28.584760 5.296645 14.500451 -27.419786 0.000000 0.000000 0.000000 2.932289 -47.893543 7.269198 3.017660 2.762741 -1.625853 10.732856 -4.539495 -5.661436 -0.055774 -0.559594 -0.039370 0.000000 0.000000 0.000000 13.268939 -2.238281 -4.923384 -14.632688 11.007843 0.425949 -13.506080 43.229480 13.470683 0.000000 0.000000 0.000000 11.656781 -3.661296 -6.488142 0.644076 -4.384924 -10.573178 1.158592 -1.971459 -1.228390 -25.179434 -4.853754 -22.247557 0.336107 -23.536031 9.427376 0.000000 0.000000 0.000000 14.372502 -2.914598 -5.383788 -9.982170 21.169321 14.147960 8.790352 4.820273 -0.538756 -56.328574 -34.657930 8.045585 -89.583115 65.080781 90.274269 0.000000 0.000000 0.000000 
